<svg width="20.000000" height="20.000000" viewBox="0 0 20 20" fill="none" xmlns="http://www.w3.org/2000/svg" xmlns:xlink="http://www.w3.org/1999/xlink">
	<desc>
			Created with Pixso.
	</desc>
	<defs/>
	<path id="Vector" d="M9.98999 0C4.47 0 0 4.47998 0 10C0 15.52 4.47 20 9.98999 20C15.52 20 20 15.52 20 10C20 4.47998 15.52 0 9.98999 0ZM10 18C5.57999 18 2 14.4199 2 10C2 5.58008 5.57999 2 10 2C14.42 2 18 5.58008 18 10C18 14.4199 14.42 18 10 18ZM9.78 5L9.72 5C9.32001 5 9 5.32007 9 5.71997L9 10.4399C9 10.79 9.17999 11.1201 9.48999 11.3L13.64 13.79C13.98 13.99 14.42 13.8899 14.62 13.55C14.6702 13.469 14.7036 13.3787 14.7182 13.2847C14.7328 13.1904 14.7283 13.0942 14.705 13.002C14.6817 12.9097 14.64 12.8228 14.5824 12.7468C14.5249 12.6709 14.4526 12.6074 14.37 12.5601L10.5 10.26L10.5 5.71997C10.5 5.32007 10.18 5 9.78 5Z" fill="#F5F5F5" fill-opacity="1.000000" fill-rule="nonzero"/>
</svg>
