<svg width="16.000000" height="19.625000" viewBox="0 0 16 19.625" fill="none" xmlns="http://www.w3.org/2000/svg" xmlns:xlink="http://www.w3.org/1999/xlink">
	<desc>
			Created with Pixso.
	</desc>
	<defs/>
	<path id="Vector" d="M8 10C8.54999 10 9.021 9.80396 9.41299 9.41211C9.80432 9.02075 10 8.55005 10 8C10 7.44995 9.80432 6.979 9.41299 6.58691C9.021 6.19556 8.54999 6 8 6C7.45001 6 6.97934 6.19556 6.58801 6.58691C6.19601 6.979 6 7.44995 6 8C6 8.55005 6.19601 9.02075 6.58801 9.41211C6.97934 9.80396 7.45001 10 8 10ZM8 17.3501C10.0333 15.4834 11.5417 13.7874 12.525 12.262C13.5083 10.7373 14 9.3833 14 8.19995C14 6.3833 13.4207 4.89575 12.262 3.73706C11.104 2.5791 9.68332 2 8 2C6.31668 2 4.89566 2.5791 3.737 3.73706C2.57901 4.89575 2 6.3833 2 8.19995C2 9.3833 2.49167 10.7373 3.47501 12.262C4.45834 13.7874 5.96667 15.4834 8 17.3501ZM8 19.625C7.86667 19.625 7.73334 19.6001 7.60001 19.55C7.46667 19.5 7.35001 19.4333 7.25 19.3501C4.81668 17.2 3 15.2043 1.79999 13.363C0.600006 11.521 0 9.80005 0 8.19995C0 5.69995 0.804321 3.70825 2.41299 2.2251C4.021 0.741699 5.88333 0 8 0C10.1167 0 11.979 0.741699 13.587 2.2251C15.1957 3.70825 16 5.69995 16 8.19995C16 9.80005 15.4 11.521 14.2 13.363C13 15.2043 11.1833 17.2 8.75 19.3501C8.64999 19.4333 8.53333 19.5 8.39999 19.55C8.26666 19.6001 8.13333 19.625 8 19.625Z" fill="#F5F5F5" fill-opacity="1.000000" fill-rule="nonzero"/>
</svg>
