<svg width="22.399933" height="22.393555" viewBox="0 0 22.3999 22.3936" fill="none" xmlns="http://www.w3.org/2000/svg" xmlns:xlink="http://www.w3.org/1999/xlink">
	<desc>
			Created with Pixso.
	</desc>
	<defs/>
	<path id="Vector" d="M22.3873 17.6726C22.3338 17.3423 22.1268 17.0601 21.8167 16.8926L17.2295 14.1897L17.1917 14.1687C16.9994 14.0723 16.787 14.0229 16.5719 14.0247C16.1876 14.0247 15.8205 14.1702 15.5658 14.4255L14.2119 15.7803C14.154 15.8352 13.9652 15.9148 13.9079 15.9177C13.8922 15.9165 12.3325 15.8042 9.46117 12.9324C6.59494 10.0669 6.47333 8.50244 6.47237 8.50244C6.47397 8.42236 6.55269 8.23413 6.60869 8.17603L7.76324 7.02173C8.16997 6.61401 8.2919 5.93823 8.05061 5.41479L5.50085 0.616943C5.31557 0.235596 4.95557 0 4.55621 0C4.27365 0 4.00101 0.117188 3.78789 0.329834L0.640686 3.46997C0.338928 3.77026 0.0790863 4.29492 0.0224457 4.71753C-0.00506592 4.91943 -0.563461 9.73926 6.04453 16.3481C11.6544 21.9575 16.0289 22.3933 17.2368 22.3933C17.384 22.3953 17.531 22.3877 17.6772 22.3706C18.0983 22.3142 18.6225 22.0549 18.9223 21.7546L22.0669 18.6104C22.3236 18.3523 22.4407 18.0115 22.3873 17.6726Z" fill="#F5F5F5" fill-opacity="1.000000" fill-rule="nonzero"/>
</svg>
